<svg width="99" height="24" viewBox="0 0 99 24" fill="none" xmlns="http://www.w3.org/2000/svg">
<g clip-path="url(#clip0_34_383)">
<path d="M24.8382 11.6977C24.787 8.43483 27.3967 5.67474 31.1471 5.7259C32.1073 5.7259 32.929 5.8433 33.6213 6.09613C34.3286 6.33091 34.8493 6.55064 35.1684 6.7523V8.70272C34.8644 8.4499 34.3768 8.18204 33.6875 7.89609C32.9982 7.59209 32.1554 7.44159 31.1471 7.44159C28.3719 7.44159 26.7405 9.30777 26.7405 11.6977C26.7405 14.0695 28.4381 15.9538 30.8461 15.9538C32.1765 15.9538 33.2691 15.4331 33.9403 14.9273V12.4532H30.524V10.7375H35.7734V17.4166H33.9403V16.8266C33.2661 17.248 32.1915 17.6664 30.8461 17.6664C27.3094 17.6695 24.787 14.9605 24.8382 11.6977Z" fill="#697F76"/>
<path d="M37.2181 13.0749C37.2181 10.5344 39.1023 8.46661 41.7602 8.46661C43.0213 8.46661 44.0808 8.95423 44.6858 9.55919V8.71944H46.4858V17.4152H44.6527L44.6708 16.5242C44.0988 17.1142 43.1748 17.668 41.7602 17.668C39.1023 17.668 37.2181 15.6152 37.2181 13.0749ZM44.7881 13.0598C44.7881 11.1756 43.5089 10.083 41.8956 10.083C40.2641 10.083 39.0361 11.4133 39.0361 13.0598C39.0361 14.7093 40.2641 16.0547 41.8956 16.0547C43.5089 16.0547 44.7881 14.9591 44.7881 13.0598Z" fill="#697F76"/>
<path d="M61.996 12.0682V17.4169H60.1779V12.2518C60.1779 10.8552 59.6723 10.0635 58.4804 10.0635C57.3877 10.0635 56.2921 10.8883 56.2921 12.5196V17.4139H54.4741V12.2488C54.4741 10.8521 53.9684 10.0606 52.7765 10.0606C51.7682 10.0606 50.7417 10.7679 50.6063 12.1796V17.4108H48.7883V8.71506H50.6063V9.75956C50.7086 9.52477 51.2955 8.44717 53.0444 8.44717C54.2724 8.44717 55.2326 8.93479 55.7864 9.87691C56.1898 9.12141 57.0988 8.44717 58.7482 8.44717C60.7017 8.45024 61.996 9.67829 61.996 12.0682Z" fill="#697F76"/>
<path d="M63.3414 13.0761C63.3414 10.5357 65.2256 8.46786 67.8834 8.46786C69.1446 8.46786 70.2041 8.95547 70.8091 9.56044V5.99366L72.6271 5.68965V17.4135H70.776L70.794 16.5225C70.2222 17.1125 69.2981 17.6663 67.8834 17.6663C65.2256 17.6693 63.3414 15.6165 63.3414 13.0761ZM70.9115 13.061C70.9115 11.1768 69.6322 10.0842 68.0189 10.0842C66.3875 10.0842 65.1083 11.4146 65.1083 13.061C65.1083 14.7105 66.3875 16.056 68.0189 16.056C69.6322 16.056 70.9115 14.9604 70.9115 13.061Z" fill="#697F76"/>
<path d="M74.141 13.0749C74.141 10.5344 76.2601 8.46661 78.9028 8.46661C81.5426 8.46661 83.6648 10.5344 83.6648 13.0749C83.6648 15.6152 81.5455 17.668 78.9028 17.668C76.2601 17.668 74.141 15.6152 74.141 13.0749ZM81.9127 13.0749C81.9127 11.4254 80.6185 10.098 78.9028 10.098C77.1871 10.098 75.8929 11.4284 75.8929 13.0749C75.8929 14.7062 77.1871 16.0366 78.9028 16.0366C80.6185 16.0366 81.9127 14.7093 81.9127 13.0749Z" fill="#697F76"/>
<path d="M98.4828 12.0682V17.4169H96.6654V12.2518C96.6654 10.8552 96.1597 10.0635 94.9672 10.0635C93.8748 10.0635 92.779 10.8883 92.779 12.5196V17.4139H90.9608V12.2488C90.9608 10.8521 90.4552 10.0606 89.2634 10.0606C88.2554 10.0606 87.2284 10.7679 87.0935 12.1796V17.4108H85.2786V8.71506H87.096V9.75956C87.1986 9.52477 87.7854 8.44717 89.5341 8.44717C90.7622 8.44717 91.723 8.93479 92.2767 9.87691C92.6797 9.12141 93.5892 8.44717 95.2386 8.44717C97.1884 8.45024 98.4828 9.67829 98.4828 12.0682Z" fill="#697F76"/>
<path d="M9.13523 14.5555H9.13225V20.2293H9.13523V14.5555Z" fill="#01D370"/>
<path d="M9.13523 14.5555H9.13225V20.2293H9.13523V14.5555Z" fill="#01D370"/>
<path d="M8.67087 11.6527L2.99405 14.3377C2.8255 14.419 2.71713 14.5935 2.71713 14.7831V19.9964C2.71713 20.189 2.8255 20.3606 2.99405 20.4419L8.67385 23.1297C8.81834 23.199 8.97484 23.2321 9.13134 23.2321V11.5474C8.97484 11.5505 8.81834 11.5865 8.67087 11.6527Z" fill="#00FF86"/>
<path d="M8.87942 0.334979L6.21558 1.65335V5.19607L3.09725 6.72513V3.1523L0.304007 4.5399C0.117389 4.6332 0 4.82284 0 5.02751V11.8541C0 12.2544 0.424404 12.5193 0.78259 12.3417L8.64761 8.48292C8.80113 8.40769 8.96665 8.37161 9.13225 8.37161V0.27478C9.04494 0.27478 8.95763 0.295849 8.87942 0.334979Z" fill="#00FF86"/>
<path d="M15.2729 14.3381L9.59305 11.6532C9.44557 11.5809 9.28908 11.5478 9.13258 11.5509V23.2355C9.28908 23.2355 9.45161 23.2024 9.59611 23.1332L15.2729 20.4453C15.4414 20.364 15.5498 20.1895 15.5498 19.9998V14.7866C15.5498 14.5939 15.4414 14.4194 15.2729 14.3381Z" fill="#01D370"/>
<path d="M17.9638 4.54013L15.1706 3.15253V6.72837L12.0492 5.19931V1.65658L9.38541 0.338213C9.30712 0.299084 9.21683 0.278015 9.13258 0.278015V8.37484C9.2981 8.37484 9.46361 8.41398 9.61713 8.48615L17.4822 12.3449C17.8433 12.5225 18.2647 12.2577 18.2647 11.8573V5.03075C18.2678 4.82305 18.1504 4.63343 17.9638 4.54013Z" fill="#01D370"/>
</g>
<defs>
<clipPath id="clip0_34_383">
<rect width="98.4828" height="24" fill="white"/>
</clipPath>
</defs>
</svg>
